<svg width="2560" height="732" viewBox="0 0 2560 732" fill="none" xmlns="http://www.w3.org/2000/svg">
<path d="M-113.541 731.776L3149.63 602.036V474.484L-113.541 604.224V731.776Z" fill="#6251E4"/>
<path d="M3056 278.672L-334.562 214.068V89.7134L3056 154.318V278.672Z" fill="#B065DB"/>
<path d="M3314.33 421.547L-146.766 535.302V410.786L3314.33 297.031V421.547Z" fill="#1E1828"/>
<path d="M2003.26 186.771C2003.26 225.807 1971.62 257.453 1932.58 257.453C1893.54 257.453 1861.9 225.807 1861.9 186.771C1861.9 147.734 1893.54 116.088 1932.58 116.088C1971.62 116.088 2003.26 147.734 2003.26 186.771Z" fill="white"/>
<path d="M2489.56 71.1353C2489.56 110.172 2457.92 141.818 2418.88 141.818C2379.84 141.818 2348.2 110.172 2348.2 71.1353C2348.2 32.0988 2379.84 0.458191 2418.88 0.458191C2457.92 0.458191 2489.56 32.0988 2489.56 71.1353Z" fill="#9A93E8"/>
<path d="M1786.02 278.672C1786.02 317.708 1754.38 349.354 1715.34 349.354C1676.31 349.354 1644.66 317.708 1644.66 278.672C1644.66 239.635 1676.31 207.995 1715.34 207.995C1754.38 207.995 1786.02 239.635 1786.02 278.672Z" fill="#8764E3"/>
<path d="M2272.56 262.474C2272.56 301.51 2240.92 333.151 2201.89 333.151C2162.85 333.151 2131.2 301.51 2131.2 262.474C2131.2 223.437 2162.85 191.792 2201.89 191.792C2240.92 191.792 2272.56 223.437 2272.56 262.474Z" fill="#9992E6"/>
<path d="M2407.49 438.318C2407.49 477.354 2375.84 509 2336.81 509C2297.78 509 2266.13 477.354 2266.13 438.318C2266.13 399.281 2297.78 367.641 2336.81 367.641C2375.84 367.641 2407.49 399.281 2407.49 438.318Z" fill="#9A93E8"/>
<path d="M1442.81 474.484C1442.81 513.521 1411.17 545.161 1372.14 545.161C1333.1 545.161 1301.45 513.521 1301.45 474.484C1301.45 435.448 1333.1 403.802 1372.14 403.802C1411.17 403.802 1442.81 435.448 1442.81 474.484Z" fill="#C954DD"/>
<path d="M1247.09 482.323C1247.09 521.359 1215.45 553.005 1176.41 553.005C1137.38 553.005 1105.73 521.359 1105.73 482.323C1105.73 443.292 1137.38 411.646 1176.41 411.646C1215.45 411.646 1247.09 443.292 1247.09 482.323Z" fill="#9A93E8"/>
<path d="M2131.2 450.115C2131.2 489.151 2099.56 520.797 2060.53 520.797C2021.49 520.797 1989.84 489.151 1989.84 450.115C1989.84 411.078 2021.49 379.432 2060.53 379.432C2099.56 379.432 2131.2 411.078 2131.2 450.115Z" fill="#6D00B8"/>
</svg>
